<svg xmlns="http://www.w3.org/2000/svg" viewBox="0 0 150 150">
    <defs>
        <style>
            .circle {
                fill: #f05a22;
            }

            .petal {
                fill: #fff;
            }
        </style>
    </defs>
    <g id="KenticoLogo" data-name="KenticoLogo">
        <circle class="circle" cx="75" cy="75" r="75"></circle>
        <path class="petal" d="M75,65a10.07,10.07,0,1,1-7.1,3A10,10,0,0,1,75,65"></path>
        <path class="petal" d="M100.82,68.1h21.6a.86.86,0,0,1,.53.19.77.77,0,0,1,.28.48c.53,2.72,1.91,13.13-6.84,13.13H101c-8.5,0-8.69-13.8-.1-13.8"></path>
        <path class="petal" d="M49.18,81.9H27.58a.86.86,0,0,1-.53-.19.87.87,0,0,1-.28-.48c-.53-2.72-1.92-13.13,6.84-13.13H49.08c8.5,0,8.69,13.8.1,13.8"></path>
        <path class="petal" d="M88.38,51.86l15.28-15.28a.86.86,0,0,1,.5-.23.8.8,0,0,1,.54.14c2.32,1.57,10.64,7.92,4.44,14.12L98.21,61.54c-6,6-15.9-3.63-9.83-9.68"></path>
        <path class="petal" d="M61.62,98.14,46.34,113.41a.79.79,0,0,1-.5.24.8.8,0,0,1-.54-.14c-2.32-1.58-10.64-7.93-4.44-14.12L51.79,88.45C57.81,82.44,67.69,92.08,61.62,98.14Z"></path>
        <path class="petal" d="M68.1,49.18V27.57a.83.83,0,0,1,.19-.52.77.77,0,0,1,.48-.28c2.72-.52,13.13-1.92,13.13,6.85V49c0,8.5-13.8,8.69-13.8.1"></path>
        <path class="petal" d="M81.9,100.82v21.61a.83.83,0,0,1-.19.52.87.87,0,0,1-.48.28c-2.72.52-13.13,1.91-13.13-6.85V100.91C68.1,92.42,81.9,92.22,81.9,100.82Z"></path>
        <path class="petal" d="M51.87,61.62,36.59,46.34a.81.81,0,0,1-.24-.5.8.8,0,0,1,.14-.54c1.58-2.32,7.93-10.63,14.12-4.44L61.55,51.8c6,6-3.63,15.9-9.68,9.82"></path>
        <path class="petal" d="M98.13,88.38l15.28,15.27a.84.84,0,0,1,.24.51.8.8,0,0,1-.14.54c-1.58,2.32-7.93,10.63-14.13,4.44L88.45,98.2c-6-6,3.63-15.9,9.68-9.82"></path>
    </g>
</svg>