<svg width="50" height="50" viewBox="0 0 50 50" fill="none" xmlns="http://www.w3.org/2000/svg" class="logo">
    <path d="M1.49169e-05 24.9701C0.0149492 11.1559 11.2306 -0.0149193 25.0299 1.49568e-05C38.8292 0.0149492 50.0149 11.2306 50 25.0299C49.9851 38.8292 38.7993 50 25 50C11.1858 49.9851 -0.0149194 38.7844 1.49169e-05 24.9701ZM24.4922 33.5275C22.5508 33.5872 20.6093 33.408 18.7127 33.0048C17.3089 32.721 16.129 31.7802 15.5466 30.466C14.9791 29.1667 14.7103 27.1505 14.7252 24.4325C14.7402 23.0138 14.8298 21.595 14.994 20.1912C15.1583 18.8172 15.3226 17.6822 15.4719 16.7862L15.6362 15.905C15.6362 15.8752 15.6362 15.8602 15.6362 15.8304C15.6362 15.5765 15.457 15.3674 15.2181 15.3226L11.9922 14.8148H11.9474C11.7085 14.8148 11.5143 14.9791 11.4546 15.2031C11.3949 15.4122 11.365 15.5615 11.2754 16.0544C11.0962 17.0102 10.917 17.9361 10.7378 19.2802C10.5436 20.7437 10.4241 22.2222 10.3793 23.7007C10.3047 24.7312 10.3047 25.7617 10.3793 26.7921C10.454 29.5251 10.9319 31.7204 11.7832 33.3483C12.6344 34.9761 14.1129 36.1559 16.1738 36.8728C18.2348 37.5896 21.1022 37.948 24.7909 37.9331H25.2539C28.9427 37.948 31.81 37.6045 33.871 36.8728C35.9319 36.1559 37.3955 34.9761 38.2617 33.3483C39.1278 31.7055 39.5908 29.5251 39.6655 26.7921C39.7402 25.7617 39.7402 24.7312 39.6655 23.7007C39.6207 22.2222 39.5012 20.7437 39.3071 19.2802C39.1129 17.951 38.9486 17.0251 38.7694 16.0544C38.6798 15.5615 38.635 15.4122 38.5902 15.2031C38.5305 14.9791 38.3363 14.8148 38.0974 14.8148H38.0078L34.782 15.3226C34.543 15.3674 34.3638 15.5765 34.3638 15.8304C34.3638 15.8602 34.3638 15.8752 34.3638 15.905L34.543 16.7862C34.7073 17.6822 34.8716 18.8172 35.0359 20.1762C35.2001 21.5801 35.2897 22.9988 35.3047 24.4176C35.3345 27.1356 35.0508 29.1368 34.4833 30.451C33.9158 31.7503 32.7509 32.6912 31.362 32.9898C29.4654 33.3931 27.5239 33.5723 25.5824 33.5126L24.4922 33.5275Z" fill="#283A97" id="circle-logo"></path>
    <path d="M171.774 27.046C171.774 22.058 173.208 18.5484 178.973 18.5484C184.737 18.5484 186.171 22.058 186.171 27.046C186.171 32.0341 184.737 35.5436 178.973 35.5436C173.208 35.5436 171.774 32.0341 171.774 27.046ZM182.512 27.046C182.512 23.5813 182.064 21.595 178.987 21.595C175.911 21.595 175.463 23.5813 175.463 27.046C175.463 30.5108 175.926 32.497 178.987 32.497C182.049 32.497 182.512 30.4958 182.512 27.046Z" fill="#283A97"></path>
</svg>